<svg width="94" height="106" viewBox="0 0 94 106" fill="none" xmlns="http://www.w3.org/2000/svg">
<path d="M6.01867 71.0936C2.16832 61.8849 1.19581 51.7283 3.22887 41.9575L3.59383 42.0317C1.56924 51.7374 2.5332 61.8281 6.35889 70.9762L6.01867 71.0936Z" fill="#EB6F0E"/>
<path d="M7.12565 31.3103L6.78543 31.1558C11.5917 20.8068 19.7678 12.3909 29.9791 7.28212C40.1903 2.17332 51.8337 0.673325 63.0083 3.027L62.9341 3.38541C51.8413 1.0461 40.2822 2.53407 30.1454 7.60623C20.0086 12.6784 11.8934 21.0348 7.12565 31.3103Z" fill="#EB6F0E"/>
<path d="M93.1582 22.8506C87.0404 14.4304 78.428 8.14424 68.5386 4.88083L68.6561 4.53478C78.6201 7.81657 87.2967 14.1492 93.4551 22.6344L93.1582 22.8506Z" fill="#EB6F0E"/>
<path d="M53.1172 102.028C51.339 102.045 49.5611 101.966 47.7913 101.793L47.8284 101.428C58.9358 102.525 70.0899 99.8614 79.4998 93.8648C81.5394 92.5642 83.4826 91.1186 85.3144 89.5391L85.5557 89.8172C76.5138 97.5666 65.03 101.889 53.1172 102.028Z" fill="#EB6F0E"/>
<path d="M40.9373 100.662C29.8967 98.0503 20.0557 91.8062 12.996 82.9333L13.2929 82.7047C20.2988 91.5123 30.0658 97.7108 41.0239 100.304L40.9373 100.662Z" fill="#EB6F0E"/>
<path d="M19.8006 65.5135C17.0797 59.0059 16.3939 51.828 17.8335 44.9237L18.1984 44.9978C16.7678 51.8356 17.4473 58.946 20.147 65.39L19.8006 65.5135Z" fill="#EB6F0E"/>
<path d="M20.6727 37.465L20.3325 37.3105C23.7267 29.9998 29.5016 24.0544 36.7144 20.445C43.9271 16.8355 52.1517 15.7754 60.0454 17.4375L59.9712 17.7959C52.1592 16.1447 44.0174 17.1913 36.8784 20.7644C29.7393 24.3376 24.0257 30.2256 20.6727 37.465Z" fill="#EB6F0E"/>
<path d="M81.2442 31.5142C76.9426 25.5865 70.8831 21.1611 63.9239 18.8649L64.0414 18.5127C71.0757 20.836 77.2014 25.3084 81.5535 31.2979L81.2442 31.5142Z" fill="#EB6F0E"/>
<path d="M53.0617 87.364C51.8059 87.3707 50.5506 87.3129 49.3007 87.191L49.3378 86.8264C57.1622 87.6052 65.0214 85.7311 71.6501 81.5059C73.085 80.5968 74.4534 79.587 75.7451 78.4841L75.9863 78.7622C74.6814 79.8768 73.2984 80.897 71.848 81.8148C66.2345 85.3961 59.7222 87.3198 53.0617 87.364Z" fill="#EB6F0E"/>
<path d="M44.4635 86.3938C36.6666 84.5494 29.7167 80.14 24.7308 73.8743L25.0277 73.6456C29.9617 79.835 36.8353 84.1877 44.5439 86.0045L44.4635 86.3938Z" fill="#EB6F0E"/>
<path d="M42.119 100.73C42.1251 101.263 41.9726 101.787 41.6808 102.233C41.389 102.68 40.971 103.03 40.4799 103.239C39.9887 103.449 39.4465 103.507 38.9218 103.408C38.3971 103.309 37.9137 103.057 37.5327 102.684C37.1517 102.31 36.8903 101.832 36.7816 101.309C36.6729 100.787 36.7218 100.244 36.9222 99.75C37.1225 99.2556 37.4652 98.8317 37.9069 98.5321C38.3487 98.2324 38.8695 98.0705 39.4034 98.0668C40.1166 98.0618 40.8027 98.3393 41.3116 98.8384C41.8205 99.3375 42.1108 100.018 42.119 100.73Z" fill="#EB6F0E"/>
<path d="M16.8685 84.8242C16.8746 85.3576 16.7221 85.8808 16.4303 86.3275C16.1385 86.7741 15.7206 87.1243 15.2294 87.3335C14.7382 87.5426 14.196 87.6015 13.6713 87.5025C13.1466 87.4036 12.6632 87.1513 12.2822 86.7776C11.9012 86.404 11.6398 85.9257 11.5311 85.4035C11.4224 84.8813 11.4713 84.3386 11.6717 83.8442C11.872 83.3497 12.2147 82.9259 12.6565 82.6262C13.0982 82.3266 13.619 82.1646 14.1529 82.1609C14.5063 82.1576 14.8568 82.224 15.1845 82.356C15.5123 82.4881 15.8107 82.6834 16.0629 82.9307C16.3151 83.178 16.516 83.4725 16.6542 83.7974C16.7924 84.1223 16.8652 84.4712 16.8685 84.8242Z" fill="#EB6F0E"/>
<path d="M7.89899 70.4262C7.9051 70.9595 7.75261 71.4827 7.46082 71.9294C7.16903 72.3761 6.75107 72.7262 6.25992 72.9354C5.76876 73.1446 5.22649 73.2034 4.70182 73.1045C4.17716 73.0055 3.6937 72.7532 3.3127 72.3796C2.93169 72.0059 2.67029 71.5276 2.5616 71.0054C2.45292 70.4832 2.50184 69.9405 2.70219 69.4461C2.90253 68.9517 3.24526 68.5278 3.68697 68.2281C4.12869 67.9285 4.6495 67.7665 5.18342 67.7628C5.53701 67.7588 5.88792 67.8245 6.21601 67.9563C6.54409 68.0881 6.84287 68.2833 7.0952 68.5308C7.34753 68.7783 7.54845 69.0731 7.68638 69.3984C7.82432 69.7236 7.89657 70.0729 7.89899 70.4262Z" fill="#EB6F0E"/>
<path d="M5.39379 44.5838C5.40113 45.1173 5.24968 45.6411 4.95865 46.0886C4.66762 46.5361 4.25011 46.8872 3.75907 47.0973C3.26804 47.3075 2.72559 47.3672 2.20053 47.269C1.67546 47.1707 1.19143 46.9189 0.809805 46.5455C0.42818 46.1721 0.166151 45.6939 0.0569563 45.1715C-0.0522389 44.6491 -0.00368166 44.1061 0.196462 43.6113C0.396605 43.1166 0.739323 42.6923 1.18116 42.3924C1.62299 42.0924 2.14403 41.9303 2.67822 41.9266C3.03151 41.9217 3.38228 41.9867 3.71033 42.1178C4.03838 42.2489 4.33722 42.4436 4.58963 42.6905C4.84205 42.9375 5.04305 43.232 5.18107 43.5569C5.31908 43.8818 5.39137 44.2308 5.39379 44.5838Z" fill="#EB6F0E"/>
<path d="M9.34016 31.3412C9.34627 31.8746 9.19377 32.3977 8.90198 32.8444C8.61019 33.2911 8.19224 33.6412 7.70108 33.8504C7.20992 34.0596 6.66765 34.1185 6.14299 34.0195C5.61832 33.9206 5.13485 33.6683 4.75385 33.2946C4.37284 32.9209 4.11145 32.4427 4.00277 31.9205C3.89408 31.3982 3.94301 30.8555 4.14335 30.3611C4.34369 29.8667 4.68642 29.4428 5.12814 29.1432C5.56985 28.8435 6.09066 28.6816 6.62458 28.6779C6.97795 28.6746 7.3285 28.7409 7.65622 28.873C7.98393 29.0051 8.2824 29.2004 8.53456 29.4477C8.78673 29.695 8.98766 29.9895 9.12589 30.3144C9.26411 30.6393 9.33692 30.9882 9.34016 31.3412Z" fill="#EB6F0E"/>
<path d="M62.8662 3.64497C62.8735 4.17857 62.7221 4.70232 62.4311 5.14981C62.14 5.59731 61.7225 5.94838 61.2315 6.15853C60.7405 6.36867 60.198 6.42841 59.6729 6.33017C59.1479 6.23193 58.6638 5.98013 58.2822 5.60672C57.9006 5.2333 57.6386 4.75509 57.5294 4.23271C57.4202 3.71034 57.4687 3.16732 57.6689 2.67255C57.869 2.17777 58.2117 1.75351 58.6536 1.45358C59.0954 1.15364 59.6164 0.991531 60.1506 0.987809C60.5037 0.98373 60.8541 1.04927 61.1818 1.18068C61.5095 1.31209 61.808 1.50678 62.0602 1.7536C62.3125 2.00042 62.5135 2.29453 62.6518 2.61909C62.7901 2.94364 62.863 3.29225 62.8662 3.64497Z" fill="#EB6F0E"/>
<path d="M93.9005 20.9474C93.9066 21.4808 93.7541 22.0039 93.4623 22.4506C93.1705 22.8973 92.7525 23.2474 92.2614 23.4566C91.7702 23.6658 91.228 23.7247 90.7033 23.6257C90.1786 23.5268 89.6952 23.2745 89.3142 22.9008C88.9332 22.5271 88.6718 22.0489 88.5631 21.5267C88.4544 21.0044 88.5033 20.4617 88.7037 19.9673C88.904 19.4729 89.2467 19.049 89.6884 18.7494C90.1302 18.4497 90.651 18.2878 91.1849 18.2841C91.5383 18.2808 91.8888 18.3471 92.2165 18.4792C92.5442 18.6113 92.8427 18.8066 93.0949 19.0539C93.347 19.3012 93.548 19.5957 93.6862 19.9206C93.8244 20.2455 93.8972 20.5944 93.9005 20.9474Z" fill="#EB6F0E"/>
<path d="M72.1263 5.87576C72.1324 6.40911 71.9799 6.93227 71.6881 7.37896C71.3963 7.82566 70.9784 8.17578 70.4872 8.38497C69.9961 8.59416 69.4538 8.65301 68.9291 8.55406C68.4045 8.45511 67.921 8.20282 67.54 7.82915C67.159 7.45547 66.8976 6.97723 66.7889 6.45501C66.6802 5.93279 66.7291 5.39009 66.9295 4.89567C67.1298 4.40126 67.4726 3.97737 67.9143 3.67772C68.356 3.37807 68.8768 3.21613 69.4107 3.21242C69.7643 3.20835 70.1152 3.27409 70.4433 3.40588C70.7714 3.53767 71.0702 3.73292 71.3225 3.98039C71.5748 4.22787 71.7757 4.52271 71.9137 4.84797C72.0516 5.17324 72.1239 5.52252 72.1263 5.87576Z" fill="#EB6F0E"/>
<path d="M77.4895 79.3925C77.4968 79.9261 77.3454 80.4499 77.0543 80.8974C76.7633 81.3449 76.3458 81.6959 75.8548 81.9061C75.3637 82.1162 74.8213 82.176 74.2962 82.0777C73.7712 81.9795 73.2871 81.7277 72.9055 81.3543C72.5239 80.9809 72.2619 80.5026 72.1527 79.9803C72.0435 79.4579 72.092 78.9149 72.2922 78.4201C72.4923 77.9253 72.835 77.5011 73.2769 77.2011C73.7187 76.9012 74.2397 76.7391 74.7739 76.7354C75.486 76.7304 76.1712 77.007 76.68 77.5048C77.1887 78.0026 77.4797 78.6812 77.4895 79.3925Z" fill="#EB6F0E"/>
<path d="M53.3773 87.3332C53.3834 87.8665 53.2309 88.3897 52.9391 88.8364C52.6473 89.2831 52.2293 89.6332 51.7382 89.8424C51.247 90.0516 50.7048 90.1104 50.1801 90.0115C49.6554 89.9125 49.172 89.6602 48.791 89.2865C48.41 88.9129 48.1486 88.4346 48.0399 87.9124C47.9312 87.3902 47.9801 86.8475 48.1805 86.3531C48.3808 85.8587 48.7235 85.4348 49.1653 85.1351C49.607 84.8355 50.1278 84.6735 50.6617 84.6698C51.0151 84.6666 51.3656 84.7329 51.6933 84.8649C52.021 84.997 52.3195 85.1923 52.5717 85.4396C52.8238 85.6869 53.0248 85.9815 53.163 86.3063C53.3012 86.6312 53.374 86.9802 53.3773 87.3332Z" fill="#EB6F0E"/>
<path d="M82.4133 29.648C82.4207 30.1816 82.2692 30.7054 81.9782 31.1529C81.6871 31.6004 81.2696 31.9514 80.7786 32.1616C80.2876 32.3717 79.7451 32.4315 79.2201 32.3332C78.695 32.235 78.211 31.9832 77.8293 31.6098C77.4477 31.2364 77.1857 30.7581 77.0765 30.2358C76.9673 29.7134 77.0158 29.1704 77.216 28.6756C77.4161 28.1808 77.7589 27.7566 78.2007 27.4566C78.6425 27.1567 79.1636 26.9946 79.6977 26.9909C80.0508 26.9868 80.4012 27.0523 80.7289 27.1837C81.0566 27.3151 81.3551 27.5098 81.6074 27.7567C81.8596 28.0035 82.0606 28.2976 82.1989 28.6221C82.3372 28.9467 82.4101 29.2953 82.4133 29.648Z" fill="#EB6F0E"/>
<path d="M68.4705 19.7115C68.4766 20.2449 68.3241 20.768 68.0323 21.2147C67.7406 21.6614 67.3226 22.0115 66.8314 22.2207C66.3403 22.4299 65.798 22.4888 65.2734 22.3898C64.7487 22.2909 64.2652 22.0386 63.8842 21.6649C63.5032 21.2912 63.2418 20.813 63.1331 20.2908C63.0245 19.7685 63.0734 19.2258 63.2737 18.7314C63.4741 18.237 63.8168 17.8131 64.2585 17.5135C64.7002 17.2138 65.221 17.0519 65.755 17.0482C66.1083 17.0449 66.4589 17.1112 66.7866 17.2433C67.1143 17.3754 67.4128 17.5707 67.6649 17.818C67.9171 18.0653 68.118 18.3598 68.2563 18.6847C68.3945 19.0096 68.4673 19.3585 68.4705 19.7115Z" fill="#EB6F0E"/>
<path d="M58.2517 14.7927C56.7622 14.7927 55.5547 15.9934 55.5547 17.4746C55.5547 18.9557 56.7622 20.1564 58.2517 20.1564C59.7412 20.1564 60.9487 18.9557 60.9487 17.4746C60.9487 15.9934 59.7412 14.7927 58.2517 14.7927Z" fill="#EB6F0E"/>
<path d="M23.5306 35.5432C23.5367 36.0763 23.3843 36.5992 23.0928 37.0458C22.8013 37.4923 22.3837 37.8424 21.8929 38.0518C21.4021 38.2612 20.8602 38.3204 20.3357 38.2219C19.8112 38.1234 19.3277 37.8718 18.9465 37.4987C18.5652 37.1257 18.3034 36.648 18.194 36.1262C18.0846 35.6044 18.1326 35.0619 18.332 34.5674C18.5314 34.0729 18.8732 33.6486 19.3141 33.3482C19.755 33.0478 20.2752 32.8848 20.8088 32.8799C21.1627 32.8758 21.5139 32.9415 21.8424 33.0732C22.1708 33.2049 22.47 33.4001 22.7228 33.6475C22.9756 33.8949 23.1771 34.1897 23.3157 34.515C23.4543 34.8403 23.5274 35.1897 23.5306 35.5432Z" fill="#EB6F0E"/>
<path d="M19.8623 47.6364C19.8696 48.17 19.7182 48.6938 19.4272 49.1413C19.1361 49.5888 18.7186 49.9398 18.2276 50.15C17.7365 50.3601 17.1941 50.4199 16.669 50.3216C16.144 50.2234 15.6599 49.9716 15.2783 49.5982C14.8967 49.2248 14.6347 48.7465 14.5255 48.2242C14.4163 47.7018 14.4648 47.1588 14.665 46.664C14.8651 46.1692 15.2078 45.745 15.6497 45.445C16.0915 45.1451 16.6125 44.983 17.1467 44.9793C17.8588 44.9743 18.544 45.2509 19.0528 45.7487C19.5615 46.2465 19.8525 46.9251 19.8623 47.6364Z" fill="#EB6F0E"/>
<path d="M21.7244 64.8647C21.7305 65.3981 21.578 65.9212 21.2862 66.3679C20.9945 66.8146 20.5765 67.1647 20.0854 67.3739C19.5942 67.5831 19.0519 67.642 18.5273 67.543C18.0026 67.4441 17.5191 67.1918 17.1381 66.8181C16.7571 66.4444 16.4957 65.9662 16.387 65.444C16.2784 64.9217 16.3273 64.379 16.5276 63.8846C16.728 63.3902 17.0707 62.9663 17.5124 62.6667C17.9541 62.367 18.4749 62.2051 19.0089 62.2014C19.3625 62.1973 19.7134 62.263 20.0414 62.3948C20.3695 62.5266 20.6683 62.7219 20.9206 62.9693C21.173 63.2168 21.3739 63.5117 21.5118 63.8369C21.6498 64.1622 21.722 64.5115 21.7244 64.8647Z" fill="#EB6F0E"/>
<path d="M28.4544 76.0247C28.4605 76.5578 28.3082 77.0807 28.0166 77.5273C27.7251 77.9738 27.3075 78.3239 26.8167 78.5333C26.3259 78.7427 25.784 78.8019 25.2595 78.7034C24.735 78.605 24.2515 78.3533 23.8703 77.9802C23.4891 77.6072 23.2272 77.1295 23.1178 76.6077C23.0084 76.0859 23.0565 75.5434 23.2559 75.0489C23.4553 74.5544 23.797 74.1301 24.2379 73.8297C24.6788 73.5293 25.199 73.3663 25.7327 73.3614C26.4469 73.3548 27.1346 73.6315 27.6448 74.1308C28.1551 74.6301 28.4463 75.3112 28.4544 76.0247Z" fill="#EB6F0E"/>
<path d="M44.7047 86.5359C44.7108 87.0693 44.5583 87.5924 44.2665 88.0391C43.9747 88.4858 43.5567 88.8359 43.0656 89.0451C42.5744 89.2543 42.0322 89.3132 41.5075 89.2142C40.9828 89.1153 40.4994 88.863 40.1184 88.4893C39.7374 88.1156 39.476 87.6374 39.3673 87.1152C39.2586 86.5929 39.3075 86.0502 39.5079 85.5558C39.7082 85.0614 40.0509 84.6375 40.4926 84.3379C40.9344 84.0382 41.4552 83.8763 41.9891 83.8726C42.3425 83.8693 42.693 83.9356 43.0207 84.0677C43.3484 84.1998 43.6469 84.3951 43.8991 84.6424C44.1512 84.8897 44.3522 85.1842 44.4904 85.5091C44.6286 85.834 44.7014 86.1829 44.7047 86.5359Z" fill="#EB6F0E"/>
<path d="M86.4156 91.393C86.4217 91.9263 86.2692 92.4495 85.9774 92.8962C85.6856 93.3429 85.2677 93.693 84.7765 93.9022C84.2854 94.1114 83.7431 94.1702 83.2184 94.0713C82.6938 93.9723 82.2103 93.72 81.8293 93.3464C81.4483 92.9727 81.1869 92.4944 81.0782 91.9722C80.9695 91.45 81.0184 90.9073 81.2188 90.4129C81.4191 89.9185 81.7619 89.4946 82.2036 89.1949C82.6453 88.8953 83.1661 88.7333 83.7 88.7296C84.0534 88.7264 84.4039 88.7927 84.7317 88.9248C85.0594 89.0568 85.3578 89.2521 85.61 89.4994C85.8622 89.7468 86.0631 90.0413 86.2013 90.3662C86.3396 90.6911 86.4124 91.04 86.4156 91.393Z" fill="#EB6F0E"/>
<path d="M51.5462 102.287C51.5523 102.821 51.3998 103.344 51.108 103.791C50.8162 104.237 50.3983 104.587 49.9071 104.797C49.416 105.006 48.8737 105.065 48.349 104.966C47.8244 104.867 47.3409 104.614 46.9599 104.241C46.5789 103.867 46.3175 103.389 46.2088 102.867C46.1001 102.344 46.1491 101.802 46.3494 101.307C46.5497 100.813 46.8925 100.389 47.3342 100.089C47.7759 99.7897 48.2967 99.6277 48.8306 99.624C49.5438 99.6191 50.2299 99.8965 50.7388 100.396C51.2478 100.895 51.538 101.575 51.5462 102.287Z" fill="#EB6F0E"/>
</svg>
