<svg width="34" height="32" viewBox="0 0 34 32" fill="none" xmlns="http://www.w3.org/2000/svg">
<path fill-rule="evenodd" clip-rule="evenodd" d="M16.6489 0C25.8438 0 33.2978 7.16344 33.2978 16C33.2978 24.8366 25.8438 32 16.6489 32C7.45397 32 0 24.8366 0 16C0 7.16344 7.45397 0 16.6489 0ZM16.6489 12.4012C16.4854 12.3995 16.3213 12.4586 16.1966 12.5785L10.8509 17.7158C10.6049 17.9522 10.6049 18.3355 10.8509 18.572C11.097 18.8084 11.4959 18.8084 11.7419 18.572L16.6488 13.8563L21.5557 18.572C21.8018 18.8084 22.2006 18.8084 22.4467 18.572C22.6927 18.3355 22.6927 17.9522 22.4467 17.7158L17.1011 12.5785C16.9763 12.4586 16.8123 12.3995 16.6489 12.4012Z" fill="#EB6F0E"/>
</svg>
