<svg width="13" height="18" viewBox="0 0 13 18" fill="none" xmlns="http://www.w3.org/2000/svg">
<path fill-rule="evenodd" clip-rule="evenodd" d="M11.2854 9.51221C11.2628 9.53936 11.2432 9.56294 11.2304 9.58651C11.1887 9.63152 11.1517 9.68064 11.1198 9.73314L7.28336 15.9306L6.39097 17.3751C6.36753 17.4133 6.33479 17.4448 6.29586 17.4667C6.25694 17.4885 6.21311 17.5 6.16854 17.5C6.12398 17.5 6.08015 17.4885 6.04122 17.4667C6.0023 17.4448 5.96956 17.4133 5.94612 17.3751L5.03216 15.9306L1.11077 9.73314C1.11077 9.71255 1.09019 9.69318 1.06968 9.67388C1.06855 9.67282 1.06741 9.67175 1.06628 9.67068L0.909914 9.43989V9.41953L0.824989 9.24439C0.288969 8.34135 0.00401733 7.30973 0 6.25764C0 2.86632 2.5181 0.5 6.1281 0.5C7.91019 0.5 9.44828 1.06477 10.5617 2.10877L10.7613 2.29477C10.8155 2.36864 10.875 2.43851 10.9392 2.50384C10.9421 2.50365 10.9451 2.50408 10.9479 2.50509C10.9506 2.50609 10.9532 2.50766 10.9553 2.5097C10.9575 2.51174 10.9592 2.51419 10.9603 2.51692C10.9615 2.51965 10.9621 2.52259 10.9621 2.52556C10.9844 2.55679 11.0123 2.59344 11.0403 2.6301C11.0683 2.66675 11.0962 2.70341 11.1185 2.73463L11.14 2.75636C11.2074 2.83917 11.2519 2.90162 11.2964 2.96543L11.318 2.98579C11.342 3.01853 11.3657 3.05723 11.3891 3.09564C11.4105 3.13051 11.4316 3.16515 11.4528 3.19486L11.4757 3.24238C11.5084 3.31445 11.5458 3.38429 11.5876 3.45145L11.6092 3.49354C11.6503 3.56107 11.6877 3.63087 11.721 3.70261C11.7325 3.71397 11.7401 3.72871 11.7426 3.7447L11.7655 3.80851C11.7759 3.828 11.7865 3.85278 11.7973 3.87793C11.809 3.90534 11.821 3.93318 11.8329 3.95513C11.8329 3.96515 11.8381 3.97516 11.8435 3.98534C11.8489 3.99586 11.8545 4.00654 11.8545 4.01758L11.8774 4.08003C11.8816 4.13156 11.8967 4.18158 11.9219 4.22665C11.9219 4.23683 11.9273 4.24735 11.9327 4.25788C11.9381 4.2684 11.9435 4.27892 11.9435 4.2891L11.9664 4.35291C11.977 4.37287 11.9823 4.39838 11.9878 4.42416C11.9935 4.45097 11.9992 4.47808 12.0109 4.49953C12.0109 4.50955 12.0161 4.51957 12.0214 4.52975C12.0269 4.54026 12.0324 4.55095 12.0324 4.56198L12.0554 4.6448C12.0658 4.6652 12.0712 4.68561 12.0766 4.70601C12.0823 4.72769 12.088 4.74937 12.0998 4.77105C12.0998 4.7921 12.1052 4.80771 12.1106 4.82332C12.116 4.83893 12.1214 4.85455 12.1214 4.87559L12.1443 4.95976C12.1443 4.98081 12.1497 4.99642 12.1551 5.01203C12.1605 5.02764 12.1659 5.04326 12.1659 5.0643C12.1659 5.08551 12.1717 5.10673 12.1775 5.12777C12.1832 5.14847 12.1888 5.169 12.1888 5.1892L12.2117 5.27337C12.2288 5.29787 12.2365 5.32778 12.2333 5.35754C12.2562 5.37791 12.2562 5.41999 12.2562 5.46208V5.54625C12.2778 5.56662 12.2778 5.6087 12.2778 5.65079V6.25764C12.2759 7.23783 12.0308 8.20201 11.5647 9.06247C11.5647 9.0719 11.5396 9.11275 11.5056 9.16795C11.4613 9.24001 11.402 9.33651 11.3638 9.41953C11.3611 9.41934 11.3583 9.41973 11.3557 9.42067C11.3531 9.42161 11.3507 9.42308 11.3486 9.42499C11.3466 9.4269 11.345 9.42921 11.3439 9.43177C11.3428 9.43433 11.3422 9.4371 11.3422 9.43989C11.3227 9.46736 11.3031 9.49089 11.2854 9.51221ZM6.13905 10C7.96466 10 9.44461 8.52008 9.44461 6.69447C9.44461 4.86886 7.96466 3.38892 6.13905 3.38892C4.31344 3.38892 2.8335 4.86886 2.8335 6.69447C2.8335 8.52008 4.31344 10 6.13905 10Z" fill="#EB6F0E"/>
</svg>
