<svg width="159" height="69" viewBox="0 0 159 69" fill="none" xmlns="http://www.w3.org/2000/svg">
<path d="M5.72917 62.0922C7.44162 48.1357 13.3326 35.0274 22.6284 24.4888L23.0228 24.8343C13.7827 35.2992 7.92724 48.3208 6.22686 62.186L5.72917 62.0922Z" fill="#EB6F0E"/>
<path d="M34.813 14.1783L34.5048 13.7519C47.5934 4.44095 63.4536 -0.152321 79.4963 0.721841C95.5389 1.596 110.816 7.88597 122.835 18.565L122.494 18.9518C110.566 8.34747 95.3997 2.10157 79.4736 1.23455C63.5476 0.367525 47.8032 4.93063 34.813 14.1783Z" fill="#EB6F0E"/>
<path d="M145.87 63.866C144.261 49.292 138.116 35.5885 128.303 24.6932L128.687 24.3517C138.579 35.3216 144.771 49.1266 146.384 63.8085L145.87 63.866Z" fill="#EB6F0E"/>
<path d="M26.4648 64.8816C27.6751 55.0187 31.8402 45.7559 38.4125 38.3111L38.8069 38.6565C32.292 46.0261 28.1661 55.202 26.9743 64.9721L26.4648 64.8816Z" fill="#EB6F0E"/>
<path d="M47.082 31.1647L46.7738 30.7382C56.0187 24.1601 67.2217 20.9143 78.554 21.5308C89.8864 22.1473 100.679 26.5897 109.169 34.1326L108.828 34.5194C100.43 27.0468 89.7488 22.6457 78.5318 22.0363C67.3149 21.4268 56.2267 24.6452 47.082 31.1647Z" fill="#EB6F0E"/>
<path d="M125.268 66.1538C124.142 55.8976 119.82 46.253 112.914 38.5862L113.303 38.2372C120.282 45.9895 124.652 55.7378 125.797 66.105L125.268 66.1538Z" fill="#EB6F0E"/>
<path d="M8.49255 62.5877C8.12825 63.2447 7.57718 63.7785 6.90915 64.1215C6.24112 64.4645 5.48619 64.6013 4.74002 64.5146C3.99384 64.4278 3.28999 64.1214 2.71765 63.6341C2.1453 63.1469 1.73022 62.5007 1.52497 61.7775C1.31973 61.0543 1.33357 60.2866 1.56473 59.5717C1.7959 58.8568 2.23398 58.2268 2.8235 57.7615C3.41301 57.2963 4.12742 57.0167 4.87621 56.9583C5.625 56.8998 6.37449 57.0651 7.0297 57.4332C7.46475 57.675 7.84785 58.0003 8.15701 58.3906C8.46617 58.7808 8.69529 59.2282 8.83122 59.7072C8.96715 60.1862 9.00721 60.6872 8.94909 61.1815C8.89097 61.6758 8.73582 62.1537 8.49255 62.5877Z" fill="#EB6F0E"/>
<path d="M23.444 29.2137C23.0811 29.8718 22.5309 30.4071 21.8632 30.7516C21.1955 31.0961 20.4405 31.2344 19.6938 31.1489C18.9471 31.0634 18.2424 30.7579 17.6691 30.2713C17.0958 29.7846 16.6796 29.1387 16.4734 28.4154C16.2673 27.692 16.2803 26.9239 16.511 26.2084C16.7416 25.493 17.1795 24.8623 17.769 24.3965C18.3585 23.9307 19.0732 23.6506 19.8223 23.5919C20.5714 23.5332 21.3213 23.6985 21.9769 24.0667C22.4121 24.3073 22.7956 24.6316 23.1052 25.021C23.4148 25.4104 23.6444 25.8571 23.7807 26.3355C23.9171 26.814 23.9576 27.3146 23.8998 27.8085C23.842 28.3025 23.6871 28.78 23.444 29.2137Z" fill="#EB6F0E"/>
<path d="M37.4984 15.7617C37.1341 16.4187 36.583 16.9525 35.915 17.2955C35.247 17.6385 34.492 17.7753 33.7459 17.6886C32.9997 17.6018 32.2959 17.2954 31.7235 16.8081C31.1512 16.3209 30.7361 15.6747 30.5308 14.9515C30.3256 14.2283 30.3394 13.4606 30.5706 12.7457C30.8018 12.0308 31.2398 11.4008 31.8294 10.9355C32.4189 10.4703 33.1333 10.1907 33.8821 10.1323C34.6309 10.0738 35.3803 10.2391 36.0356 10.6072C36.4698 10.8498 36.852 11.1756 37.1605 11.5659C37.4691 11.9563 37.6978 12.4036 37.8336 12.8822C37.9694 13.3608 38.0098 13.8615 37.9522 14.3556C37.8947 14.8496 37.7405 15.3274 37.4984 15.7617Z" fill="#EB6F0E"/>
<path d="M122.231 19.2221C121.868 19.8802 121.317 20.4155 120.65 20.76C119.982 21.1045 119.227 21.2428 118.48 21.1573C117.734 21.0718 117.029 20.7663 116.456 20.2797C115.882 19.793 115.466 19.1471 115.26 18.4238C115.054 17.7005 115.067 16.9324 115.298 16.2169C115.528 15.5014 115.966 14.8707 116.556 14.4049C117.145 13.9391 117.86 13.6591 118.609 13.6003C119.358 13.5416 120.108 13.7069 120.763 14.0751C121.198 14.3165 121.581 14.6413 121.889 15.0308C122.198 15.4203 122.428 15.8669 122.564 16.345C122.7 16.8231 122.741 17.3233 122.684 17.817C122.627 18.3107 122.473 18.7882 122.231 19.2221Z" fill="#EB6F0E"/>
<path d="M148.104 62.0549C147.74 62.7118 147.189 63.2456 146.521 63.5887C145.853 63.9317 145.098 64.0685 144.352 63.9817C143.605 63.895 142.902 63.5885 142.329 63.1013C141.757 62.614 141.342 61.9679 141.137 61.2447C140.931 60.5215 140.945 59.7538 141.176 59.0389C141.407 58.3239 141.846 57.6939 142.435 57.2287C143.025 56.7634 143.739 56.4839 144.488 56.4254C145.237 56.367 145.986 56.5323 146.641 56.9003C147.075 57.143 147.458 57.4687 147.766 57.8591C148.075 58.2494 148.303 58.6967 148.439 59.1754C148.575 59.654 148.615 60.1547 148.558 60.6487C148.5 61.1428 148.346 61.6206 148.104 62.0549Z" fill="#EB6F0E"/>
<path d="M131.995 28.4146C131.63 29.0715 131.079 29.6053 130.411 29.9484C129.743 30.2914 128.988 30.4282 128.242 30.3414C127.496 30.2547 126.792 29.9483 126.22 29.461C125.647 28.9738 125.232 28.3276 125.027 27.6044C124.822 26.8812 124.836 26.1135 125.067 25.3986C125.298 24.6836 125.736 24.0536 126.325 23.5884C126.915 23.1231 127.629 22.8436 128.378 22.7851C129.127 22.7267 129.876 22.892 130.532 23.2601C130.967 23.5018 131.35 23.8272 131.659 24.2174C131.968 24.6077 132.197 25.0551 132.333 25.5341C132.469 26.013 132.509 26.5141 132.451 27.0084C132.393 27.5027 132.238 27.9806 131.995 28.4146Z" fill="#EB6F0E"/>
<path d="M127.998 64.686C127.635 65.3441 127.085 65.8794 126.417 66.2239C125.75 66.5684 124.995 66.7067 124.248 66.6212C123.501 66.5357 122.797 66.2302 122.223 65.7436C121.65 65.2569 121.234 64.611 121.028 63.8877C120.821 63.1644 120.835 62.3963 121.065 61.6808C121.296 60.9653 121.734 60.3346 122.323 59.8688C122.913 59.403 123.627 59.123 124.377 59.0643C125.126 59.0055 125.876 59.1708 126.531 59.539C126.965 59.7804 127.348 60.1052 127.657 60.4947C127.966 60.8842 128.195 61.3308 128.331 61.8089C128.468 62.287 128.508 62.7872 128.451 63.2809C128.394 63.7746 128.24 64.2521 127.998 64.686Z" fill="#EB6F0E"/>
<path d="M117.882 42.7954C117.517 43.4523 116.966 43.9861 116.298 44.3292C115.63 44.6722 114.875 44.809 114.129 44.7222C113.383 44.6355 112.679 44.3291 112.107 43.8418C111.534 43.3546 111.119 42.7084 110.914 41.9852C110.709 41.262 110.723 40.4943 110.954 39.7794C111.185 39.0644 111.623 38.4344 112.213 37.9692C112.802 37.5039 113.517 37.2244 114.265 37.1659C115.014 37.1075 115.764 37.2728 116.419 37.6408C116.853 37.8835 117.235 38.2093 117.544 38.5996C117.852 38.99 118.081 39.4372 118.217 39.9159C118.353 40.3945 118.393 40.8952 118.336 41.3892C118.278 41.8833 118.124 42.3611 117.882 42.7954Z" fill="#EB6F0E"/>
<path d="M108.82 29.6441C106.999 28.6046 104.686 29.2314 103.654 31.044C102.621 32.8566 103.26 35.1687 105.081 36.2083C106.901 37.2478 109.214 36.621 110.247 34.8084C111.279 32.9958 110.64 30.6836 108.82 29.6441Z" fill="#EB6F0E"/>
<path d="M51.9149 30.8073C51.5507 31.4639 51 31.9975 50.3324 32.3405C49.6648 32.6836 48.9103 32.8206 48.1645 32.7343C47.4186 32.648 46.7149 32.3422 46.1425 31.8557C45.57 31.3692 45.1545 30.7238 44.9485 30.0012C44.7425 29.2786 44.7554 28.5113 44.9854 27.7964C45.2155 27.0815 45.6523 26.4511 46.2408 25.9851C46.8292 25.519 47.5427 25.2383 48.291 25.1784C49.0393 25.1184 49.7887 25.282 50.4445 25.6484C50.8799 25.8904 51.2634 26.2159 51.573 26.6063C51.8827 26.9967 52.1124 27.4443 52.2489 27.9235C52.3855 28.4027 52.4263 28.9041 52.369 29.399C52.3117 29.8938 52.1574 30.3724 51.9149 30.8073Z" fill="#EB6F0E"/>
<path d="M39.0012 43.0468C38.6382 43.7049 38.088 44.2402 37.4203 44.5848C36.7527 44.9293 35.9976 45.0676 35.2509 44.982C34.5042 44.8965 33.7995 44.5911 33.2262 44.1044C32.6529 43.6178 32.2368 42.9718 32.0306 42.2485C31.8244 41.5252 31.8374 40.7571 32.0681 40.0416C32.2987 39.3261 32.7366 38.6955 33.3261 38.2297C33.9157 37.7638 34.6303 37.4838 35.3794 37.4251C36.1286 37.3664 36.8785 37.5316 37.534 37.8999C38.4079 38.3908 39.0526 39.2074 39.3275 40.1717C39.6023 41.1359 39.485 42.1695 39.0012 43.0468Z" fill="#EB6F0E"/>
<path d="M29.2684 65.4302C28.9041 66.0871 28.353 66.6209 27.685 66.964C27.017 67.307 26.2621 67.4438 25.5159 67.357C24.7697 67.2703 24.0659 66.9638 23.4935 66.4766C22.9212 65.9893 22.5061 65.3432 22.3008 64.62C22.0956 63.8968 22.1094 63.1291 22.3406 62.4142C22.5718 61.6992 23.0099 61.0692 23.5994 60.604C24.1889 60.1387 24.9033 59.8592 25.6521 59.8007C26.4009 59.7423 27.1504 59.9076 27.8056 60.2756C28.2406 60.5174 28.6237 60.8428 28.9329 61.233C29.2421 61.6233 29.4712 62.0707 29.6071 62.5497C29.743 63.0286 29.7831 63.5297 29.725 64.024C29.6668 64.5183 29.5117 64.9962 29.2684 65.4302Z" fill="#EB6F0E"/>
</svg>
