<svg width="17" height="18" viewBox="0 0 17 18" fill="none" xmlns="http://www.w3.org/2000/svg">
<path d="M17 9C17 13.6944 13.1944 17.5 8.5 17.5C3.80558 17.5 0 13.6944 0 9C0 4.30558 3.80558 0.5 8.5 0.5C13.1944 0.5 17 4.30558 17 9Z" fill="#EB6F0E"/>
<path d="M12.8157 10.7609C12.3511 10.5266 12.0116 10.3823 11.7703 10.2922C11.6184 10.2381 11.261 10.0759 11.1359 10.175C10.7428 10.4995 10.3228 11.4189 9.87609 11.5902C8.76813 11.3739 7.7406 10.6077 6.93644 9.82349C6.57903 9.48096 5.91784 8.50746 5.77488 8.24606C5.74807 7.97564 6.23057 7.61508 6.33779 7.40776C6.89176 6.77679 6.47181 6.38018 6.40033 6.11878C6.27524 5.84836 6.0608 5.36161 5.87316 4.965C5.71233 4.7036 5.67659 4.316 5.39067 4.17178C4.17549 3.54081 3.47855 4.80275 3.19263 5.46076C1.46816 9.65222 11.8329 17.6295 13.9416 12.131C14.0488 11.6533 14.0041 11.473 13.8433 11.2567C13.5305 11.0404 13.1553 10.9412 12.8157 10.7609Z" fill="white"/>
</svg>
