<svg width="44" height="44" viewBox="0 0 44 44" fill="none" xmlns="http://www.w3.org/2000/svg">
<g clip-path="url(#clip0_206_1076)">
<path d="M41.25 0H2.75C1.23337 0 0 1.23337 0 2.75V41.25C0 42.7666 1.23337 44 2.75 44H41.25C42.7666 44 44 42.7666 44 41.25V2.75C44 1.23337 42.7666 0 41.25 0ZM41.25 41.25L2.75 41.2514V2.75H41.25V41.25Z" fill="#EB6F0E"/>
<path d="M27.097 14.7221L25.1527 12.7778L16.9027 21.0278C16.3651 21.5654 16.3651 22.4345 16.9027 22.9721L25.1527 31.2221L27.097 29.2778L19.8191 21.9999L27.097 14.7221Z" fill="#EB6F0E"/>
</g>
<defs>
<clipPath id="clip0_206_1076">
<rect width="44" height="44" fill="white"/>
</clipPath>
</defs>
</svg>
