<svg width="17" height="17" viewBox="0 0 17 17" fill="none" xmlns="http://www.w3.org/2000/svg">
<circle cx="8.5" cy="8.5" r="8.5" fill="#EB6F0E"/>
<path fill-rule="evenodd" clip-rule="evenodd" d="M3.76297 5H2.45C2.07457 5 2 5.17331 2 5.3643C2 5.70586 2.44486 7.40003 4.07257 9.64039C5.1572 11.1703 6.68514 12 8.07628 12C8.91097 12 9.01434 11.8156 9.01434 11.4983V10.3417C9.01434 9.97337 9.09303 9.9001 9.35737 9.9001C9.55228 9.9001 9.88605 9.9956 10.6647 10.7333C11.5549 11.6074 11.7015 12 12.2024 12H13.5154C13.8903 12 14.078 11.8156 13.9695 11.4523C13.8512 11.09 13.4264 10.564 12.8622 9.94103C12.5562 9.58582 12.0975 9.20333 11.9581 9.01184C11.7637 8.76628 11.8193 8.65663 11.9581 8.43836C11.9581 8.43836 13.5575 6.22528 13.7247 5.47394C13.808 5.20059 13.7247 5 13.3277 5H12.0147C11.6809 5 11.5271 5.17331 11.4438 5.3643C11.4438 5.3643 10.7763 6.96297 9.83051 8.0013C9.52451 8.30143 9.38514 8.39743 9.21851 8.39743C9.13468 8.39743 9.01383 8.30143 9.01383 8.02858V5.47394C9.01383 5.14552 8.91714 5 8.63891 5H6.57611C6.36731 5 6.24183 5.15158 6.24183 5.29609C6.24183 5.60683 6.71497 5.67858 6.76383 6.5532V8.452C6.76383 8.86834 6.68668 8.94363 6.52006 8.94363C6.0752 8.94363 4.99263 7.33839 4.35028 5.50123C4.2248 5.144 4.09829 5 3.76297 5Z" fill="white"/>
</svg>
